<?xml version="1.0" encoding="UTF-8" standalone="no"?>
<svg width="185px" height="75px" viewBox="0 0 185 75" version="1.1" xmlns="http://www.w3.org/2000/svg" xmlns:xlink="http://www.w3.org/1999/xlink">
    <!-- Generator: Sketch 41.2 (35397) - http://www.bohemiancoding.com/sketch -->
    <title>udp-ios-cn</title>
    <desc>Created with Sketch.</desc>
    <defs>
        <rect id="path-1" x="0" y="0" width="169" height="56" rx="28"></rect>
        <filter x="-50%" y="-50%" width="200%" height="200%" filterUnits="objectBoundingBox" id="filter-2">
            <feOffset dx="0" dy="4" in="SourceAlpha" result="shadowOffsetOuter1"></feOffset>
            <feGaussianBlur stdDeviation="2" in="shadowOffsetOuter1" result="shadowBlurOuter1"></feGaussianBlur>
            <feColorMatrix values="0 0 0 0 0   0 0 0 0 0   0 0 0 0 0  0 0 0 0.104223279 0" type="matrix" in="shadowBlurOuter1" result="shadowMatrixOuter1"></feColorMatrix>
            <feOffset dx="0" dy="0" in="SourceAlpha" result="shadowOffsetOuter2"></feOffset>
            <feGaussianBlur stdDeviation="1.5" in="shadowOffsetOuter2" result="shadowBlurOuter2"></feGaussianBlur>
            <feColorMatrix values="0 0 0 0 0   0 0 0 0 0   0 0 0 0 0  0 0 0 0.24 0" type="matrix" in="shadowBlurOuter2" result="shadowMatrixOuter2"></feColorMatrix>
            <feMerge>
                <feMergeNode in="shadowMatrixOuter1"></feMergeNode>
                <feMergeNode in="shadowMatrixOuter2"></feMergeNode>
            </feMerge>
        </filter>
    </defs>
    <g id="Page-1" stroke="none" stroke-width="1" fill="none" fill-rule="evenodd">
        <g id="udp-ios-cn">
            <g id="Group-7-Copy-6" transform="translate(8.000000, 7.000000)">
                <g id="BG-Copy-2">
                    <use fill="black" fill-opacity="1" filter="url(#filter-2)" xlink:href="#path-1"></use>
                    <use fill="#00AF66" fill-rule="evenodd" xlink:href="#path-1"></use>
                </g>
                <g id="Group-9-Copy" transform="translate(63.000000, 13.000000)" fill="#FFFFFF">
                    <path d="M7.232,0.72 L5.408,0.72 L0.48,12 L2.496,12 L3.648,9.296 L8.944,9.296 L10.08,12 L12.16,12 L7.232,0.72 Z M8.224,7.552 L4.368,7.552 L6.288,3.072 L8.224,7.552 Z M22.592,7.776 C22.592,4.96 20.656,3.376 18.656,3.376 C17.296,3.376 16.416,4.08 15.792,4.96 L15.792,3.552 L13.856,3.552 L13.856,14.56 L15.792,14.56 L15.792,10.688 C16.384,11.472 17.264,12.176 18.656,12.176 C20.672,12.176 22.592,10.592 22.592,7.776 Z M20.624,7.776 C20.624,9.456 19.536,10.496 18.208,10.496 C16.896,10.496 15.744,9.424 15.744,7.776 C15.744,6.128 16.896,5.056 18.208,5.056 C19.52,5.056 20.624,6.112 20.624,7.776 Z M33.312,7.776 C33.312,4.96 31.376,3.376 29.376,3.376 C28.016,3.376 27.136,4.08 26.512,4.96 L26.512,3.552 L24.576,3.552 L24.576,14.56 L26.512,14.56 L26.512,10.688 C27.104,11.472 27.984,12.176 29.376,12.176 C31.392,12.176 33.312,10.592 33.312,7.776 Z M31.344,7.776 C31.344,9.456 30.256,10.496 28.928,10.496 C27.616,10.496 26.464,9.424 26.464,7.776 C26.464,6.128 27.616,5.056 28.928,5.056 C30.24,5.056 31.344,6.112 31.344,7.776 Z M46.128,9.504 L46.128,9.472 C46.128,7.952 44.736,7.392 43.504,7.008 C42.512,6.688 41.6,6.432 41.6,5.824 L41.6,5.792 C41.6,5.296 42.032,4.944 42.784,4.944 C43.488,4.944 44.352,5.248 45.168,5.744 L45.936,4.368 C45.04,3.776 43.888,3.408 42.832,3.408 C41.152,3.408 39.824,4.384 39.824,5.984 L39.824,6.016 C39.824,7.632 41.216,8.144 42.464,8.496 C43.456,8.8 44.352,9.024 44.352,9.68 L44.352,9.712 C44.352,10.272 43.872,10.624 43.04,10.624 C42.176,10.624 41.184,10.272 40.272,9.584 L39.408,10.896 C40.464,11.728 41.792,12.16 42.992,12.16 C44.752,12.16 46.128,11.28 46.128,9.504 Z M50.432,5.216 L52.704,5.216 L52.704,3.552 L50.432,3.552 L50.432,1.232 L48.496,1.232 L48.496,3.552 L47.424,3.552 L47.424,5.216 L48.496,5.216 L48.496,9.664 C48.496,11.52 49.504,12.144 50.928,12.144 C51.648,12.144 52.192,11.984 52.672,11.712 L52.672,10.128 C52.288,10.32 51.904,10.416 51.472,10.416 C50.816,10.416 50.432,10.112 50.432,9.36 L50.432,5.216 Z M63.2,7.776 C63.2,5.344 61.296,3.376 58.704,3.376 C56.112,3.376 54.192,5.376 54.192,7.808 C54.192,10.224 56.096,12.192 58.672,12.192 C61.28,12.192 63.2,10.192 63.2,7.776 Z M61.264,7.808 C61.264,9.296 60.272,10.512 58.704,10.512 C57.2,10.512 56.128,9.28 56.128,7.776 C56.128,6.288 57.12,5.072 58.672,5.072 C60.192,5.072 61.264,6.304 61.264,7.808 Z M67.104,8.784 C67.104,6.544 68.288,5.44 69.984,5.44 L70.096,5.44 L70.096,3.392 C68.608,3.328 67.632,4.192 67.104,5.456 L67.104,3.552 L65.168,3.552 L65.168,12 L67.104,12 L67.104,8.784 Z M73.248,8.464 L79.456,8.464 C79.472,8.272 79.488,8.112 79.488,7.936 C79.488,5.488 78.128,3.376 75.44,3.376 C73.024,3.376 71.312,5.36 71.312,7.792 C71.312,10.416 73.2,12.192 75.648,12.192 C77.2,12.192 78.304,11.568 79.104,10.608 L77.968,9.6 C77.296,10.256 76.624,10.608 75.68,10.608 C74.432,10.608 73.472,9.84 73.248,8.464 Z M73.232,7.184 C73.408,5.872 74.24,4.96 75.424,4.96 C76.704,4.96 77.44,5.936 77.568,7.184 L73.232,7.184 Z" id="App-store"></path>
                    <path d="M5.22,21.576 L5.22,29.34 C5.22,30.012 5.196,30.408 5.136,30.816 L6.276,30.816 C6.216,30.42 6.192,30.012 6.192,29.34 L6.192,23.976 C7.98,24.864 8.76,25.32 9.936,26.232 L10.488,25.32 C8.976,24.312 8.508,24.06 6.192,22.956 L6.192,21.576 L9.852,21.576 C10.44,21.576 10.872,21.6 11.316,21.648 L11.316,20.616 C10.884,20.664 10.452,20.688 9.852,20.688 L2.148,20.688 C1.536,20.688 1.104,20.664 0.684,20.616 L0.684,21.648 C1.116,21.6 1.572,21.576 2.148,21.576 L5.22,21.576 Z M13.308,21.036 L13.308,22.068 L15.552,22.068 L15.552,22.932 L12.684,22.932 L12.684,23.976 L19.344,23.976 C19.416,25.008 19.548,25.908 19.716,26.652 C19.836,27.252 19.992,27.804 20.16,28.308 C19.572,29.196 18.864,29.868 18.024,30.324 L18.636,31.236 C19.38,30.828 20.052,30.264 20.652,29.52 C20.736,29.688 20.832,29.856 20.94,30.012 C21.444,30.732 21.9,31.092 22.332,31.092 C22.872,31.092 23.28,30.288 23.556,28.692 L22.584,28.176 C22.452,29.34 22.32,29.928 22.2,29.928 C22.044,29.928 21.828,29.64 21.54,29.088 C21.456,28.932 21.372,28.752 21.3,28.56 C21.888,27.552 22.368,26.316 22.74,24.852 L21.72,24.396 C21.492,25.368 21.204,26.244 20.856,27.036 C20.808,26.832 20.772,26.616 20.724,26.4 C20.604,25.776 20.508,24.972 20.436,23.976 L23.304,23.976 L23.304,22.932 L20.376,22.932 C20.328,22.092 20.304,21.156 20.304,20.112 L19.2,20.112 C19.2,21.12 19.224,22.068 19.272,22.932 L16.656,22.932 L16.656,22.068 L18.732,22.068 L18.732,21.036 L16.656,21.036 L16.656,20.124 L15.552,20.124 L15.552,21.036 L13.308,21.036 Z M21.528,20.232 L20.664,20.784 C21.264,21.456 21.732,22.056 22.068,22.596 L22.92,21.996 C22.596,21.492 22.128,20.904 21.528,20.232 Z M18.732,28.644 C18.168,28.716 17.58,28.776 16.956,28.836 L16.956,28.068 L18.672,28.068 L18.672,27.12 L16.956,27.12 L16.956,26.328 L15.84,26.328 L15.84,27.12 L14.676,27.12 C14.916,26.748 15.156,26.34 15.372,25.884 L18.792,25.884 L18.792,24.876 L15.792,24.876 C15.864,24.684 15.936,24.492 16.008,24.276 L14.928,24.072 C14.832,24.348 14.748,24.612 14.652,24.876 L13.044,24.876 L13.044,25.884 L14.208,25.884 C13.956,26.388 13.692,26.808 13.404,27.156 L13.62,28.068 L15.84,28.068 L15.84,28.944 C14.976,29.016 14.076,29.076 13.116,29.124 L13.248,30.18 C14.148,30.108 15.012,30.036 15.84,29.964 L15.84,31.2 L16.956,31.2 L16.956,29.844 C17.568,29.772 18.156,29.7 18.732,29.628 L18.732,28.644 Z" id="下载-copy-9"></path>
                </g>
                <g id="Group-6-Copy-4" transform="translate(25.000000, 14.000000)">
                    <path d="M25,20.0610194 C24.5707085,21.4369535 23.8937591,22.812867 22.9691314,24.1888011 C21.5491673,26.3462659 20.1347283,27.4249821 18.7257717,27.4249821 C18.1864055,27.4249821 17.415894,27.2488651 16.4142139,26.896626 C15.4675712,26.5443868 14.6365195,26.3682699 13.9210337,26.3682699 C13.2495779,26.3682699 12.468059,26.5498905 11.5764537,26.9131371 C10.6848484,27.2873912 9.95836605,27.4745154 9.39698492,27.4745154 C7.72384902,27.4745154 6.06724917,26.0490691 4.42713568,23.1981335 C2.80903714,20.3251831 2,17.5568451 2,14.8930366 C2,12.3833327 2.6219129,10.3249662 3.86575736,8.71787509 C5.10960182,7.13279897 6.67263955,6.34027279 8.55491744,6.34027279 C9.34745551,6.34027279 10.3216023,6.50538241 11.4773869,6.8356066 C12.6221641,7.1658308 13.3816684,7.33094042 13.7559225,7.33094042 C14.2512588,7.33094042 15.0382813,7.14381618 16.1170136,6.7695621 C17.2397759,6.39530801 18.191908,6.20818378 18.9734386,6.20818378 C20.2833279,6.20818378 21.4556062,6.56592128 22.4903087,7.28140704 C23.0626973,7.67767607 23.6350773,8.22804146 24.2074659,8.93251974 C23.3378755,9.67002044 22.710459,10.3194516 22.3251974,10.8808327 C21.6097117,11.9155352 21.2519742,13.0547916 21.2519742,14.298636 C21.2519742,15.6635627 21.6317263,16.8908775 22.3912419,17.9806174 C23.1507576,19.0703572 24.0203349,19.7638176 25,20.0610194 Z M18.7918162,0.693467337 C18.7918162,1.36492319 18.6322103,2.11342014 18.3129935,2.93898062 C17.9827693,3.7645411 17.4709295,4.52404535 16.7774587,5.21751615 C16.1830552,5.8119197 15.5886605,6.20818279 14.994257,6.4063173 C14.5869805,6.5273995 14.0146005,6.62096162 13.2770998,6.68700646 C13.3101222,5.04689297 13.7394072,3.6324539 14.5649677,2.44364681 C15.3795207,1.26584719 16.7554342,0.451306396 18.6927495,0 C18.7037569,0.0330224192 18.7175161,0.0935626131 18.7340273,0.181622398 C18.7505385,0.269682182 18.7642976,0.330222376 18.7753051,0.363244795 C18.7753051,0.407274688 18.7780569,0.462311228 18.7835607,0.528356066 C18.7890644,0.594400905 18.7918162,0.649437444 18.7918162,0.693467337 Z" id="" fill="#FFFFFF"></path>
                    <rect id="Rectangle-3" x="0" y="0" width="28" height="28"></rect>
                </g>
                <g id="Group-6-Copy-6" transform="translate(25.000000, 14.000000)">
                    <path d="M25,20.0610194 C24.5707085,21.4369535 23.8937591,22.812867 22.9691314,24.1888011 C21.5491673,26.3462659 20.1347283,27.4249821 18.7257717,27.4249821 C18.1864055,27.4249821 17.415894,27.2488651 16.4142139,26.896626 C15.4675712,26.5443868 14.6365195,26.3682699 13.9210337,26.3682699 C13.2495779,26.3682699 12.468059,26.5498905 11.5764537,26.9131371 C10.6848484,27.2873912 9.95836605,27.4745154 9.39698492,27.4745154 C7.72384902,27.4745154 6.06724917,26.0490691 4.42713568,23.1981335 C2.80903714,20.3251831 2,17.5568451 2,14.8930366 C2,12.3833327 2.6219129,10.3249662 3.86575736,8.71787509 C5.10960182,7.13279897 6.67263955,6.34027279 8.55491744,6.34027279 C9.34745551,6.34027279 10.3216023,6.50538241 11.4773869,6.8356066 C12.6221641,7.1658308 13.3816684,7.33094042 13.7559225,7.33094042 C14.2512588,7.33094042 15.0382813,7.14381618 16.1170136,6.7695621 C17.2397759,6.39530801 18.191908,6.20818378 18.9734386,6.20818378 C20.2833279,6.20818378 21.4556062,6.56592128 22.4903087,7.28140704 C23.0626973,7.67767607 23.6350773,8.22804146 24.2074659,8.93251974 C23.3378755,9.67002044 22.710459,10.3194516 22.3251974,10.8808327 C21.6097117,11.9155352 21.2519742,13.0547916 21.2519742,14.298636 C21.2519742,15.6635627 21.6317263,16.8908775 22.3912419,17.9806174 C23.1507576,19.0703572 24.0203349,19.7638176 25,20.0610194 Z M18.7918162,0.693467337 C18.7918162,1.36492319 18.6322103,2.11342014 18.3129935,2.93898062 C17.9827693,3.7645411 17.4709295,4.52404535 16.7774587,5.21751615 C16.1830552,5.8119197 15.5886605,6.20818279 14.994257,6.4063173 C14.5869805,6.5273995 14.0146005,6.62096162 13.2770998,6.68700646 C13.3101222,5.04689297 13.7394072,3.6324539 14.5649677,2.44364681 C15.3795207,1.26584719 16.7554342,0.451306396 18.6927495,0 C18.7037569,0.0330224192 18.7175161,0.0935626131 18.7340273,0.181622398 C18.7505385,0.269682182 18.7642976,0.330222376 18.7753051,0.363244795 C18.7753051,0.407274688 18.7780569,0.462311228 18.7835607,0.528356066 C18.7890644,0.594400905 18.7918162,0.649437444 18.7918162,0.693467337 Z" id="" fill="#FFFFFF"></path>
                    <rect id="Rectangle-3" x="0" y="0" width="28" height="28"></rect>
                </g>
            </g>
        </g>
    </g>
</svg>