<?xml version="1.0" encoding="UTF-8" standalone="no"?>
<svg width="170px" height="75px" viewBox="0 0 170 75" version="1.1" xmlns="http://www.w3.org/2000/svg" xmlns:xlink="http://www.w3.org/1999/xlink">
    <!-- Generator: Sketch 41.2 (35397) - http://www.bohemiancoding.com/sketch -->
    <title>udp-android-cn</title>
    <desc>Created with Sketch.</desc>
    <defs>
        <rect id="path-1" x="0" y="0" width="154" height="56" rx="28"></rect>
        <filter x="-50%" y="-50%" width="200%" height="200%" filterUnits="objectBoundingBox" id="filter-2">
            <feOffset dx="0" dy="4" in="SourceAlpha" result="shadowOffsetOuter1"></feOffset>
            <feGaussianBlur stdDeviation="2" in="shadowOffsetOuter1" result="shadowBlurOuter1"></feGaussianBlur>
            <feColorMatrix values="0 0 0 0 0   0 0 0 0 0   0 0 0 0 0  0 0 0 0.104223279 0" type="matrix" in="shadowBlurOuter1" result="shadowMatrixOuter1"></feColorMatrix>
            <feOffset dx="0" dy="0" in="SourceAlpha" result="shadowOffsetOuter2"></feOffset>
            <feGaussianBlur stdDeviation="1.5" in="shadowOffsetOuter2" result="shadowBlurOuter2"></feGaussianBlur>
            <feColorMatrix values="0 0 0 0 0   0 0 0 0 0   0 0 0 0 0  0 0 0 0.24 0" type="matrix" in="shadowBlurOuter2" result="shadowMatrixOuter2"></feColorMatrix>
            <feMerge>
                <feMergeNode in="shadowMatrixOuter1"></feMergeNode>
                <feMergeNode in="shadowMatrixOuter2"></feMergeNode>
            </feMerge>
        </filter>
    </defs>
    <g id="Page-1" stroke="none" stroke-width="1" fill="none" fill-rule="evenodd">
        <g id="udp-android-cn">
            <g id="Group-7" transform="translate(8.000000, 7.000000)">
                <g id="BG-Copy-2">
                    <use fill="black" fill-opacity="1" filter="url(#filter-2)" xlink:href="#path-1"></use>
                    <use fill="#00AF66" fill-rule="evenodd" xlink:href="#path-1"></use>
                </g>
                <g id="Group-9-Copy" transform="translate(63.000000, 13.000000)" fill="#FFFFFF">
                    <path d="M7.232,0.72 L5.408,0.72 L0.48,12 L2.496,12 L3.648,9.296 L8.944,9.296 L10.08,12 L12.16,12 L7.232,0.72 Z M8.224,7.552 L4.368,7.552 L6.288,3.072 L8.224,7.552 Z M15.792,7.232 C15.792,5.92 16.576,5.136 17.696,5.136 C18.848,5.136 19.504,5.888 19.504,7.2 L19.504,12 L21.44,12 L21.44,6.624 C21.44,4.656 20.336,3.376 18.432,3.376 C17.12,3.376 16.336,4.064 15.792,4.864 L15.792,3.552 L13.856,3.552 L13.856,12 L15.792,12 L15.792,7.232 Z M32.08,12 L32.08,0.32 L30.144,0.32 L30.144,4.864 C29.536,4.08 28.656,3.376 27.264,3.376 C25.248,3.376 23.344,4.96 23.344,7.776 C23.344,10.592 25.28,12.176 27.264,12.176 C28.64,12.176 29.52,11.472 30.144,10.592 L30.144,12 L32.08,12 Z M30.176,7.776 C30.176,9.424 29.024,10.496 27.728,10.496 C26.416,10.496 25.296,9.44 25.296,7.776 C25.296,6.08 26.4,5.056 27.728,5.056 C29.024,5.056 30.176,6.128 30.176,7.776 Z M36.432,8.784 C36.432,6.544 37.616,5.44 39.312,5.44 L39.424,5.44 L39.424,3.392 C37.936,3.328 36.96,4.192 36.432,5.456 L36.432,3.552 L34.496,3.552 L34.496,12 L36.432,12 L36.432,8.784 Z M49.648,7.776 C49.648,5.344 47.744,3.376 45.152,3.376 C42.56,3.376 40.64,5.376 40.64,7.808 C40.64,10.224 42.544,12.192 45.12,12.192 C47.728,12.192 49.648,10.192 49.648,7.776 Z M47.712,7.808 C47.712,9.296 46.72,10.512 45.152,10.512 C43.648,10.512 42.576,9.28 42.576,7.776 C42.576,6.288 43.568,5.072 45.12,5.072 C46.64,5.072 47.712,6.304 47.712,7.808 Z M53.728,2.256 L53.728,0.416 L51.648,0.416 L51.648,2.256 L53.728,2.256 Z M53.664,12 L53.664,3.552 L51.728,3.552 L51.728,12 L53.664,12 Z M64.496,12 L64.496,0.32 L62.56,0.32 L62.56,4.864 C61.952,4.08 61.072,3.376 59.68,3.376 C57.664,3.376 55.76,4.96 55.76,7.776 C55.76,10.592 57.696,12.176 59.68,12.176 C61.056,12.176 61.936,11.472 62.56,10.592 L62.56,12 L64.496,12 Z M62.592,7.776 C62.592,9.424 61.44,10.496 60.144,10.496 C58.832,10.496 57.712,9.44 57.712,7.776 C57.712,6.08 58.816,5.056 60.144,5.056 C61.44,5.056 62.592,6.128 62.592,7.776 Z" id="Android"></path>
                    <path d="M5.22,21.576 L5.22,29.34 C5.22,30.012 5.196,30.408 5.136,30.816 L6.276,30.816 C6.216,30.42 6.192,30.012 6.192,29.34 L6.192,23.976 C7.98,24.864 8.76,25.32 9.936,26.232 L10.488,25.32 C8.976,24.312 8.508,24.06 6.192,22.956 L6.192,21.576 L9.852,21.576 C10.44,21.576 10.872,21.6 11.316,21.648 L11.316,20.616 C10.884,20.664 10.452,20.688 9.852,20.688 L2.148,20.688 C1.536,20.688 1.104,20.664 0.684,20.616 L0.684,21.648 C1.116,21.6 1.572,21.576 2.148,21.576 L5.22,21.576 Z M13.308,21.036 L13.308,22.068 L15.552,22.068 L15.552,22.932 L12.684,22.932 L12.684,23.976 L19.344,23.976 C19.416,25.008 19.548,25.908 19.716,26.652 C19.836,27.252 19.992,27.804 20.16,28.308 C19.572,29.196 18.864,29.868 18.024,30.324 L18.636,31.236 C19.38,30.828 20.052,30.264 20.652,29.52 C20.736,29.688 20.832,29.856 20.94,30.012 C21.444,30.732 21.9,31.092 22.332,31.092 C22.872,31.092 23.28,30.288 23.556,28.692 L22.584,28.176 C22.452,29.34 22.32,29.928 22.2,29.928 C22.044,29.928 21.828,29.64 21.54,29.088 C21.456,28.932 21.372,28.752 21.3,28.56 C21.888,27.552 22.368,26.316 22.74,24.852 L21.72,24.396 C21.492,25.368 21.204,26.244 20.856,27.036 C20.808,26.832 20.772,26.616 20.724,26.4 C20.604,25.776 20.508,24.972 20.436,23.976 L23.304,23.976 L23.304,22.932 L20.376,22.932 C20.328,22.092 20.304,21.156 20.304,20.112 L19.2,20.112 C19.2,21.12 19.224,22.068 19.272,22.932 L16.656,22.932 L16.656,22.068 L18.732,22.068 L18.732,21.036 L16.656,21.036 L16.656,20.124 L15.552,20.124 L15.552,21.036 L13.308,21.036 Z M21.528,20.232 L20.664,20.784 C21.264,21.456 21.732,22.056 22.068,22.596 L22.92,21.996 C22.596,21.492 22.128,20.904 21.528,20.232 Z M18.732,28.644 C18.168,28.716 17.58,28.776 16.956,28.836 L16.956,28.068 L18.672,28.068 L18.672,27.12 L16.956,27.12 L16.956,26.328 L15.84,26.328 L15.84,27.12 L14.676,27.12 C14.916,26.748 15.156,26.34 15.372,25.884 L18.792,25.884 L18.792,24.876 L15.792,24.876 C15.864,24.684 15.936,24.492 16.008,24.276 L14.928,24.072 C14.832,24.348 14.748,24.612 14.652,24.876 L13.044,24.876 L13.044,25.884 L14.208,25.884 C13.956,26.388 13.692,26.808 13.404,27.156 L13.62,28.068 L15.84,28.068 L15.84,28.944 C14.976,29.016 14.076,29.076 13.116,29.124 L13.248,30.18 C14.148,30.108 15.012,30.036 15.84,29.964 L15.84,31.2 L16.956,31.2 L16.956,29.844 C17.568,29.772 18.156,29.7 18.732,29.628 L18.732,28.644 Z" id="下载-copy-9"></path>
                </g>
                <g id="Group-7-Copy-8" transform="translate(25.000000, 13.000000)">
                    <path d="M10.1036932,6.55539806 C10.3006639,6.55539806 10.469933,6.48461278 10.6115057,6.3430401 C10.7530784,6.20146742 10.8238636,6.03219828 10.8238636,5.8352276 C10.8238636,5.63825692 10.7530784,5.46898778 10.6115057,5.3274151 C10.469933,5.18584242 10.3006639,5.11505715 10.1036932,5.11505715 C9.9067225,5.11505715 9.74053098,5.18584242 9.60511364,5.3274151 C9.46969629,5.46898778 9.40198864,5.63825692 9.40198864,5.8352276 C9.40198864,6.03219828 9.46969629,6.20146742 9.60511364,6.3430401 C9.74053098,6.48461278 9.9067225,6.55539806 10.1036932,6.55539806 Z M17.8963068,6.55539806 C18.0932775,6.55539806 18.259469,6.48461278 18.3948864,6.3430401 C18.5303037,6.20146742 18.5980114,6.03219828 18.5980114,5.8352276 C18.5980114,5.63825692 18.5303037,5.46898778 18.3948864,5.3274151 C18.259469,5.18584242 18.0932775,5.11505715 17.8963068,5.11505715 C17.6993361,5.11505715 17.530067,5.18584242 17.3884943,5.3274151 C17.2469216,5.46898778 17.1761364,5.63825692 17.1761364,5.8352276 C17.1761364,6.03219828 17.2469216,6.20146742 17.3884943,6.3430401 C17.530067,6.48461278 17.6993361,6.55539806 17.8963068,6.55539806 Z M2.90198864,9.95312533 C3.41903668,9.95312533 3.86221406,10.1377826 4.23153409,10.5071026 C4.60085412,10.8764226 4.78551136,11.3196 4.78551136,11.8366481 L4.78551136,19.776989 C4.78551136,20.3063477 4.60393174,20.7556803 4.24076705,21.1250003 C3.87760235,21.4943204 3.43134734,21.6789776 2.90198864,21.6789776 C2.37262993,21.6789776 1.9232973,21.4943204 1.55397727,21.1250003 C1.18465724,20.7556803 1,20.3063477 1,19.776989 L1,11.8366481 C1,11.3196 1.18465724,10.8764226 1.55397727,10.5071026 C1.9232973,10.1377826 2.37262993,9.95312533 2.90198864,9.95312533 Z M22.4758523,10.3039776 L22.4758523,22.6022731 C22.4758523,23.1685638 22.2788845,23.6486726 21.8849432,24.042614 C21.4910018,24.4365553 21.0170482,24.6335231 20.4630682,24.6335231 L19.078125,24.6335231 L19.078125,28.8252844 C19.078125,29.3546431 18.8934678,29.8039758 18.5241477,30.1732958 C18.1548277,30.5426158 17.7054951,30.7272731 17.1761364,30.7272731 C16.6467777,30.7272731 16.197445,30.5426158 15.828125,30.1732958 C15.458805,29.8039758 15.2741477,29.3546431 15.2741477,28.8252844 L15.2741477,24.6335231 L12.7258523,24.6335231 L12.7258523,28.8252844 C12.7258523,29.3546431 12.541195,29.8039758 12.171875,30.1732958 C11.802555,30.5426158 11.3532223,30.7272731 10.8238636,30.7272731 C10.3068156,30.7272731 9.86363821,30.5426158 9.49431818,30.1732958 C9.12499815,29.8039758 8.94034091,29.3546431 8.94034091,28.8252844 L8.921875,24.6335231 L7.55539773,24.6335231 C6.98910702,24.6335231 6.50899818,24.4365553 6.11505682,24.042614 C5.72111545,23.6486726 5.52414773,23.1685638 5.52414773,22.6022731 L5.52414773,10.3039776 L22.4758523,10.3039776 Z M18.1917614,2.82528442 C19.5090028,3.50237114 20.5615491,4.4472007 21.3494318,5.65980146 C22.1373145,6.87240222 22.53125,8.19885676 22.53125,9.63920487 L5.45028409,9.63920487 C5.45028409,8.19885676 5.84421955,6.87240222 6.63210227,5.65980146 C7.419985,4.4472007 8.47868653,3.50237114 9.80823864,2.82528442 L8.49715909,0.406250328 C8.41098442,0.246211649 8.44176062,0.12310682 8.58948864,0.0369321465 C8.74952732,-0.0369318592 8.87263214,-4.10353171e-07 8.95880682,0.147727601 L10.2883523,2.5852276 C11.4578657,2.06817956 12.6950692,1.80965942 14,1.80965942 C15.3049308,1.80965942 16.5421343,2.06817956 17.7116477,2.5852276 L19.0411932,0.147727601 C19.1273679,-4.10353171e-07 19.2504727,-0.0369318592 19.4105114,0.0369321465 C19.5582394,0.12310682 19.5890156,0.246211649 19.5028409,0.406250328 L18.1917614,2.82528442 Z M27,11.8366481 L27,19.776989 C27,20.3063477 26.8153428,20.7556803 26.4460227,21.1250003 C26.0767027,21.4943204 25.6273701,21.6789776 25.0980114,21.6789776 C24.5809633,21.6789776 24.1377859,21.4943204 23.7684659,21.1250003 C23.3991459,20.7556803 23.2144886,20.3063477 23.2144886,19.776989 L23.2144886,11.8366481 C23.2144886,11.3072893 23.3991459,10.8610343 23.7684659,10.4978696 C24.1377859,10.134705 24.5809633,9.95312533 25.0980114,9.95312533 C25.6273701,9.95312533 26.0767027,10.134705 26.4460227,10.4978696 C26.8153428,10.8610343 27,11.3072893 27,11.8366481 Z" id="" fill="#FFFFFF"></path>
                    <rect id="Rectangle-3-Copy" x="0" y="2" width="28" height="28"></rect>
                </g>
            </g>
        </g>
    </g>
</svg>